/* XPM */
static char *result[] = {
/* columns rows colors chars-per-pixel */
"32 32 110 2 ",
"   c gray2",
".  c #060606",
"X  c #070707",
"o  c gray3",
"O  c #090909",
"+  c gray4",
"@  c #0C0C0C",
"#  c gray5",
"$  c #0E0E0E",
"%  c gray6",
"&  c #101010",
"*  c #111111",
"=  c #131313",
"-  c gray8",
";  c #151515",
":  c #161616",
">  c gray9",
",  c gray10",
"<  c #282828",
"1  c #2A2A2A",
"2  c gray17",
"3  c #2D2D2D",
"4  c #2F2F2F",
"5  c #313131",
"6  c #323232",
"7  c gray20",
"8  c gray34",
"9  c #5A5A5A",
"0  c #5B5B5B",
"q  c gray36",
"w  c #5D5D5D",
"e  c gray37",
"r  c #5F5F5F",
"t  c gray38",
"y  c #626262",
"u  c gray39",
"i  c #646464",
"p  c #656565",
"a  c gray40",
"s  c #686868",
"d  c DimGray",
"f  c #6A6A6A",
"g  c gray42",
"h  c #6C6C6C",
"j  c #6D6D6D",
"k  c #6F6F6F",
"l  c gray44",
"z  c #717171",
"x  c #727272",
"c  c gray45",
"v  c #747474",
"b  c #767676",
"n  c #777777",
"m  c gray47",
"M  c #797979",
"N  c gray49",
"B  c gray50",
"V  c #808080",
"C  c #818181",
"Z  c gray51",
"A  c #848484",
"S  c gray52",
"D  c #868686",
"F  c gray53",
"G  c #888888",
"H  c #898989",
"J  c #8B8B8B",
"K  c gray55",
"L  c #8D8D8D",
"P  c #8E8E8E",
"I  c gray56",
"U  c #909090",
"Y  c #929292",
"T  c #939393",
"R  c gray58",
"E  c #959595",
"W  c gray59",
"Q  c #979797",
"!  c gray60",
"~  c #9A9A9A",
"^  c #9B9B9B",
"/  c gray61",
"(  c #9D9D9D",
")  c gray62",
"_  c #A0A0A0",
"`  c gray63",
"'  c #A2A2A2",
"]  c gray64",
"[  c #A4A4A4",
"{  c #A5A5A5",
"}  c #A7A6A7",
"|  c gray66",
" . c #A9A9A9",
".. c #AAAAAA",
"X. c gray67",
"o. c #ACACAC",
"O. c gray68",
"+. c #AFAFAF",
"@. c gray69",
"#. c #B1B1B1",
"$. c #B2B2B2",
"%. c gray70",
"&. c #B4B4B4",
"*. c #B6B6B6",
"=. c #B7B7B7",
"-. c gray72",
";. c #B9B9B9",
":. c gray73",
">. c gray74",
",. c gray75",
/* pixels */
"H l l v e O Y P D J K K R   * -._ Y J j r y X F T L & :.} ` Y F ",
"H d g w r w = E H F V A * * ;.+._ W F l u & = Y H @ #.$.o.` H J ",
"H b l t t e q @ K V U % * &.$./ L H x y t - G C Z ; * o.@.{ ) H ",
"k M t u t $ # % K A % + %.+. .' L P l i a + Z H H K % O & ~ ] G ",
"l + + u r $ P Q Z G $ #.$.-.{ _ L z e * & % P D B S P R = + { F ",
"* Y P O e ; K F Z J $ O.:.X.{ H h t & + L V Z G J H G F U # O : ",
"G L H P = I H F A T $ & %.) + * - = ; K F F A L U K D A A Z H D ",
"# $ K J S Y L * * J G $ ' & * I J J U L J P K # & % $ $ J Y J + ",
"L U $ * K Z O -.L & G U % : T G J % & = O P % @ &.&.&.&.& $ & ..",
"G P p $ L J > ( n + S J G P I @ @ % H d # J = >.&.&.&.*.%.o.X...",
"P G n z & P S + e @ I S G G & *.X.L m % * P & %.&.&.&.&...X.}  .",
"U m s y = + T @ % D H V D L & # _ D h # I G : $.&.&.&.&.X.X.~ L ",
"U j h i w O L I G G Y * Y R K + + - $ * S L # O.&.&.=...X.} / P ",
"L n k p 0 q - L G V & O.$ I J H F D H H I S $ & %.*.+.[  .{ ! H ",
"K Z z s u e t = B S # &.@ $ I G U * X = K L P @ - $.o.} [ ` ^ U ",
"J K c d y y i % G S ; %.%.> & ; & d k O = A J T $ $ # X.] _ ` ] ",
"J K z x e w t # K A + -.X.` Y F I b a t = K Z G J L $ / ` ` ] | ",
"J H h c w q $ = G D $ &.o.' T G J g u y = K Z G U E = % | ) [ _ ",
"G l h p w % R T S H * #.{ ^ K C x z y u = K Z G T L K & O [ ] H ",
"P l i o * K D U Z K - +.~ P V v h 8 w : = K Z G & ; Y K & - ) J ",
"X % $ K Y R F G J J o ) ' G U h i % * & J J Y = L d # L G # # : ",
"U J K F A S F K L Y % & L I U $ $ . K P F & & ] P l ; G J P Y P ",
"Z F F F F G P P I K D O & $ # I U Z C S D # :.] ~ + % P F A V S ",
"F C J B H K @ # * % F P F N H H G S G S P Q ; & & @ J P # F G B ",
"V F K K E , +..._ $ = & A F K K @ $ * - ; # D G L P U % ,.$ F G ",
"K K I K J $ ..` K D l % I D L $ * -.@.T g & + L G L H : $.$ K K ",
"= + K F I & O * T x w @ D F K % &.o._ F b y - L A T # +.#.{ = + ",
"K U $ H S I I o & i t O K C Y o -.[ [ K j y @ C N > -.-.@.| ` P ",
"P L - = # H Y H U % % U K U * % O.] ' E c ; * P K @ *.*.&.+._ 2 ",
"F K f k # - L R F T T F J $ = o.` ! Y H b # K C S & %.@...7 1 3 ",
"P L h h t + T Z G J J G G # #.O.^ R H k u & I S K I = >...1 < 6 ",
"S g v 9 u % U A S G G S F H $ o.^ P J h y % T N S R & =.O.4 7 5 "
};
