/* XPM */
static char *b2be7d60222e4c70d0d02dac89146ce8aMQ1A9021I20oJu4[] = {
/* columns rows colors chars-per-pixel */
"32 32 36 1 ",
"  c gray2",
". c gray4",
"X c gray5",
"o c #111111",
"O c #151515",
"+ c gray10",
"@ c #2A2A2A",
"# c #2F2F2F",
"$ c gray20",
"% c gray34",
"& c #5B5B5B",
"* c #5D5D5D",
"= c gray38",
"- c #646464",
"; c DimGray",
": c #6F6F6F",
"> c gray44",
", c #747474",
"< c #797979",
"1 c gray50",
"2 c #808080",
"3 c gray52",
"4 c #898989",
"5 c #8D8D8D",
"6 c #929292",
"7 c #979797",
"8 c #9A9A9A",
"9 c gray61",
"0 c #A2A2A2",
"q c #A5A5A5",
"w c #A9A9A9",
"e c #AFAFAF",
"r c #B2B2B2",
"t c #B4B4B4",
"y c gray72",
"u c gray74",
/* pixels */
"4>>,*.6534557 oy064:*= 365oyq063",
"4;;***o74323ooye073>=oo64Xrre044",
"4,>==**X526Xotr954>==O422Ooerq94",
":<===XXX53X.rew055>--.2445X.o804",
">..=*X5724Xrryq05>*ooX531357o.q3",
"o65.*O5324Xeywq4:=o.522444436X.O",
"4545o54336Xor9.oOoO5333565333243",
"XX54365oo44X0oo54465455XoXXX464.",
"56Xo52.y5o46XO644Xoo.5XXttttoXow",
"45-X54O9,.34455XXX4;X4outtttreww",
"54,>o53.*X5344otw5<Xo5orttttwwqw",
"6<;=o.6XX34235oX03:X54Orttttww85",
"6::-*.55446o675..OXo35Xetttwwq95",
"5,:-&*O542oeX544334453Xorteqwq84",
"52>;=*=o13XtXX546o o555XOreqq086",
"45>;==-X43OrrOoOo;:.o346XXXw0000",
"45>>**=X53.yw0635,-=o52445X9000w",
"44:>**Xo43Xte0644;==o52467oXw9q0",
"4>:-*X7634orq852>>==o524655o.q04",
"5>-.o53625Oe852,:%*Oo524oO65oO94",
" XX5673444.9046:-Xoo446o5;X54XXO",
"6453333556Xo556XX 553oo05>O44565",
"23333455553.oXX562233Xy08.X53323",
"324145XXoX353144434357OooX45X341",
"23557+ew0Xoo3355XXoOOX34556XuX34",
"55554Xw053>X535Xoyr6;o.5454OrX55",
"o.535o.o6>*X335Xte03,=O536Xerqo.",
"56X4355.o-=.526.yqq5:=X21Oyyrw05",
"55OoX4646XX656oXe007>Oo55Xttte0@",
"35;:XO5736634Xoe0864,X523orrw$@#",
"55::=.6244444Xre874:=o5355ouw@@$",
"3;,&=X63344334Xe854:=X6137ote#$$"
};
