/* XPM */
static char *_7cae83b131946e68e98d193dd4158a8[] = {
/* columns rows colors chars-per-pixel */
"32 32 104 2 ",
"   c #47704C",
".  c #041222",
"X  c #081928",
"o  c #061424",
"O  c #AAADAF",
"+  c #00000D",
"@  c #082644",
"#  c #3A3D40",
"$  c #8C9398",
"%  c None",
"&  c #18737E",
"*  c #495660",
"=  c #C4C5C6",
"-  c #00061C",
";  c #74797E",
":  c #63686E",
">  c #9BA1A5",
",  c #101925",
"<  c #2A4255",
"1  c #737B81",
"2  c #15181C",
"3  c #61666C",
"4  c #545E68",
"5  c #8B8E91",
"6  c #1F242A",
"7  c #242628",
"8  c #5B656C",
"9  c #292E35",
"0  c #1E2B35",
"q  c #797D81",
"w  c #4C565D",
"e  c #182129",
"r  c #555F66",
"t  c #253039",
"y  c #BDBFC0",
"u  c #636F78",
"i  c #515C63",
"p  c #363F48",
"a  c #7C7F83",
"s  c #0B121C",
"d  c #000612",
"f  c #81888C",
"g  c #516370",
"h  c #949A9E",
"j  c #677681",
"k  c #A5A8AA",
"l  c #6E7378",
"z  c #0B1620",
"x  c #A9ABAD",
"c  c #2E404F",
"v  c #2E3740",
"b  c #1E2830",
"n  c #B7BDC0",
"m  c #91979C",
"M  c #999B9B",
"N  c #A5AAAF",
"B  c #898B8C",
"V  c #666A6D",
"C  c #161718",
"Z  c white",
"A  c #9DA0A3",
"S  c #A2A4A6",
"D  c #9B9D9E",
"F  c #BDBEBE",
"G  c #B1B1B2",
"H  c #B3B4B4",
"J  c #96989A",
"K  c #D1D2D3",
"L  c #A8AAAB",
"P  c #CCCECE",
"I  c #B8B8B9",
"U  c #343537",
"Y  c #C2C6C9",
"T  c #6F7172",
"R  c #E6E7E8",
"E  c #F8F8F8",
"W  c #D6D7D8",
"Q  c #0F0F10",
"!  c #929395",
"~  c #DDDEDE",
"^  c #737578",
"/  c #C6C9CB",
"(  c #858789",
")  c #7B7D7F",
"_  c #8A8C8E",
"`  c #E0E1E2",
"'  c #EDEEEE",
"]  c #F1F2F2",
"[  c #E2E3E4",
"{  c #2F3031",
"}  c #ADAEAF",
"|  c #626364",
" . c #4E4F52",
".. c #454647",
"X. c gray92",
"o. c #AEB6BC",
"O. c #414242",
"+. c #757F86",
"@. c #7C8790",
"#. c #61707B",
"$. c #202123",
"%. c #565859",
"&. c #1F2021",
"*. c #EEEFEF",
/* pixels */
"                                                                ",
"                                                                ",
"                                                                ",
"                                                                ",
"                          X + . . + d                           ",
"                        g $ O O O O > u X                       ",
"                  < f 8 O ~ F I H H K = i @                     ",
"                - $ o.+.I | O.% Q Q % ( ; +                     ",
"                . h @.#.S U $.C C C Q  .a p                     ",
"                  j 5 ! D C C C C C &.%.! : X                   ",
"                  @ w } J ..C C C { ..T S 1 X                   ",
"                    * k D J T ^ ^ | T ( A : X                   ",
"                    4 L X.R Y ~ ` H D W F 3 .                   ",
"                  o > E Z K I ~ *.F F ' Z n *                   ",
"                  * x ' / } ! F ` ! J G E ` 1 X                 ",
"                  l = L ( [ K = F P W S W E m o                 ",
"                @ $ E R D ] K L F H ' L P Z N c                 ",
"                o q K J _ R [ G G P ` A D ~ _ 0                 ",
"                o q S U ) G H G G G S D ^ D U z                 ",
"                o 3 ^ % A Z ] X.R ] R Y V A U 0                 ",
"                @ , 6 e y Z Z K I Z E / 8 9 e <                 ",
"                    X t y Z Z / L Z Z P r X &                   ",
"                      t B P K J ) P W A w                       ",
"                      b M H S S S I L A r                       ",
"                    & 4 5 A _  .T A D ) 6 o                     ",
"                    . ; Y Y A U T / Y J { s                     ",
"                    d 9 # # 7 2 v # # 7 2 ,                     ",
"                    & . + . . . . + . . . X                     ",
"                                                                ",
"                                                                ",
"                                                                ",
"                                                                "
};
